<svg width="900" height="620" viewBox="0 0 900 620" fill="none" xmlns="http://www.w3.org/2000/svg">
  <defs>
    <linearGradient id="g1" x1="0" y1="0" x2="900" y2="620" gradientUnits="userSpaceOnUse">
      <stop stop-color="#EAF7FF" stop-opacity="0.92"/>
      <stop offset="0.45" stop-color="#79B9F5" stop-opacity="0.8"/>
      <stop offset="1" stop-color="#0C4FA8" stop-opacity="0.95"/>
    </linearGradient>
    <linearGradient id="cyl" x1="0" y1="0" x2="1" y2="1">
      <stop stop-color="#EAF1F8"/>
      <stop offset="0.45" stop-color="#9AAABB"/>
      <stop offset="1" stop-color="#586A7D"/>
    </linearGradient>
    <linearGradient id="blueCyl" x1="0" y1="0" x2="1" y2="1">
      <stop stop-color="#49C8FF"/>
      <stop offset="0.55" stop-color="#0875DD"/>
      <stop offset="1" stop-color="#064391"/>
    </linearGradient>
    <filter id="shadow" x="-20%" y="-20%" width="140%" height="150%">
      <feDropShadow dx="0" dy="20" stdDeviation="16" flood-color="#001a45" flood-opacity="0.35"/>
    </filter>
  </defs>
  <rect x="0" y="0" width="900" height="620" fill="url(#g1)" opacity="0.08"/>
  <g opacity="0.52" stroke="#C8ECFF" stroke-width="4">
    <path d="M80 90H780M150 130H820M120 170H760M210 210H840"/>
    <path d="M140 60V330M285 35V340M440 40V350M595 58V340M750 72V330"/>
  </g>
  <g opacity="0.75" stroke="#2ED7FF" stroke-width="5" stroke-linecap="round">
    <path d="M100 250 C220 210 320 220 450 260 S700 315 820 240"/>
    <path d="M160 300 H690 Q740 300 770 260"/>
  </g>
  <g filter="url(#shadow)">
    <g transform="translate(60 270)">
      <rect x="0" y="60" width="660" height="24" rx="10" fill="#0A326A"/>
      <rect x="18" y="0" width="90" height="85" rx="18" fill="#0A65C5" opacity="0.92"/>
      <rect x="130" y="5" width="90" height="80" rx="18" fill="#0A65C5" opacity="0.92"/>
      <rect x="245" y="0" width="90" height="85" rx="18" fill="#0A65C5" opacity="0.92"/>
      <rect x="360" y="8" width="90" height="77" rx="18" fill="#0A65C5" opacity="0.92"/>
      <rect x="475" y="4" width="90" height="81" rx="18" fill="#0A65C5" opacity="0.92"/>
      <rect x="590" y="10" width="72" height="75" rx="16" fill="#0A65C5" opacity="0.92"/>
      <circle cx="65" cy="24" r="13" fill="#C9F4FF"/>
      <circle cx="175" cy="27" r="13" fill="#C9F4FF"/>
      <circle cx="292" cy="24" r="13" fill="#C9F4FF"/>
      <circle cx="406" cy="31" r="13" fill="#C9F4FF"/>
      <circle cx="520" cy="27" r="13" fill="#C9F4FF"/>
      <circle cx="626" cy="32" r="11" fill="#C9F4FF"/>
    </g>
    <g transform="translate(120 270)">
      <g>
        <rect x="0" y="40" width="52" height="232" rx="24" fill="url(#cyl)"/>
        <rect x="14" y="14" width="24" height="38" rx="9" fill="#DEE8F2"/>
        <rect x="8" y="0" width="36" height="16" rx="6" fill="#8798AA"/>
      </g>
      <g transform="translate(70 10)">
        <rect x="0" y="40" width="52" height="222" rx="24" fill="url(#cyl)"/>
        <rect x="14" y="14" width="24" height="38" rx="9" fill="#DEE8F2"/>
        <rect x="8" y="0" width="36" height="16" rx="6" fill="#8798AA"/>
      </g>
      <g transform="translate(140 0)">
        <rect x="0" y="40" width="52" height="242" rx="24" fill="url(#blueCyl)"/>
        <rect x="14" y="14" width="24" height="38" rx="9" fill="#CDEFFF"/>
        <rect x="8" y="0" width="36" height="16" rx="6" fill="#1061C6"/>
      </g>
      <g transform="translate(210 20)">
        <rect x="0" y="40" width="52" height="222" rx="24" fill="url(#cyl)"/>
        <rect x="14" y="14" width="24" height="38" rx="9" fill="#DEE8F2"/>
        <rect x="8" y="0" width="36" height="16" rx="6" fill="#8798AA"/>
      </g>
      <g transform="translate(280 7)">
        <rect x="0" y="40" width="52" height="235" rx="24" fill="url(#blueCyl)"/>
        <rect x="14" y="14" width="24" height="38" rx="9" fill="#CDEFFF"/>
        <rect x="8" y="0" width="36" height="16" rx="6" fill="#1061C6"/>
      </g>
      <g transform="translate(350 22)">
        <rect x="0" y="40" width="52" height="220" rx="24" fill="url(#cyl)"/>
        <rect x="14" y="14" width="24" height="38" rx="9" fill="#DEE8F2"/>
        <rect x="8" y="0" width="36" height="16" rx="6" fill="#8798AA"/>
      </g>
    </g>
  </g>
  <g transform="translate(640 210)" filter="url(#shadow)">
    <circle cx="72" cy="52" r="34" fill="#EAF7FF"/>
    <path d="M38 48 C46 8 98 4 116 43" stroke="#0A65C5" stroke-width="10" stroke-linecap="round"/>
    <rect x="32" y="85" width="95" height="170" rx="28" fill="#1169CE"/>
    <path d="M50 104H110M50 130H116" stroke="#86DFFF" stroke-width="8" stroke-linecap="round" opacity="0.9"/>
    <rect x="118" y="106" width="62" height="16" rx="8" fill="#1169CE"/>
    <rect x="160" y="116" width="36" height="112" rx="12" fill="#083A88"/>
    <rect x="60" y="252" width="23" height="80" rx="9" fill="#07336F"/>
    <rect x="100" y="252" width="23" height="80" rx="9" fill="#07336F"/>
    <circle cx="72" cy="50" r="21" fill="#F2FBFF"/>
    <path d="M55 58 C70 72 90 71 104 56" stroke="#21507F" stroke-width="4" stroke-linecap="round" opacity="0.35"/>
    <path d="M46 152 L0 180" stroke="#1169CE" stroke-width="18" stroke-linecap="round"/>
    <circle cx="0" cy="180" r="13" fill="#DDEAF7"/>
  </g>
</svg>
